<?xml version="1.0" encoding="UTF-8" standalone="no"?>
<!-- Created with Inkscape (http://www.inkscape.org/) -->

<svg
   xmlns:dc="http://purl.org/dc/elements/1.1/"
   xmlns:cc="http://creativecommons.org/ns#"
   xmlns:rdf="http://www.w3.org/1999/02/22-rdf-syntax-ns#"
   xmlns:svg="http://www.w3.org/2000/svg"
   xmlns="http://www.w3.org/2000/svg"
   xmlns:xlink="http://www.w3.org/1999/xlink"
   xmlns:sodipodi="http://sodipodi.sourceforge.net/DTD/sodipodi-0.dtd"
   xmlns:inkscape="http://www.inkscape.org/namespaces/inkscape"
   width="256"
   height="256"
   id="svg2"
   version="1.1"
   inkscape:version="0.48.3.1 r9886"
   sodipodi:docname="Documento nuevo 1">
  <defs
     id="defs4">
    <linearGradient
       id="linearGradient3876">
      <stop
         style="stop-color:#ffd42a;stop-opacity:1;"
         offset="0"
         id="stop3878" />
      <stop
         style="stop-color:#ff782a;stop-opacity:1;"
         offset="1"
         id="stop3880" />
    </linearGradient>
    <linearGradient
       inkscape:collect="always"
       id="linearGradient3865">
      <stop
         style="stop-color:#ff0000;stop-opacity:1;"
         offset="0"
         id="stop3867" />
      <stop
         style="stop-color:#ff0000;stop-opacity:0;"
         offset="1"
         id="stop3869" />
    </linearGradient>
    <linearGradient
       inkscape:collect="always"
       xlink:href="#linearGradient3876"
       id="linearGradient4139"
       gradientUnits="userSpaceOnUse"
       x1="483.49167"
       y1="674.53027"
       x2="312.53427"
       y2="700.32678" />
    <linearGradient
       inkscape:collect="always"
       xlink:href="#linearGradient3865"
       id="linearGradient4141"
       gradientUnits="userSpaceOnUse"
       x1="424.5517"
       y1="586.06317"
       x2="158.19954"
       y2="672.49176" />
  </defs>
  <sodipodi:namedview
     id="base"
     pagecolor="#ffffff"
     bordercolor="#666666"
     borderopacity="1.0"
     inkscape:pageopacity="0.0"
     inkscape:pageshadow="2"
     inkscape:zoom="0.5814741"
     inkscape:cx="373.63013"
     inkscape:cy="376.39558"
     inkscape:document-units="px"
     inkscape:current-layer="layer1"
     showgrid="false"
     inkscape:window-width="1311"
     inkscape:window-height="787"
     inkscape:window-x="109"
     inkscape:window-y="54"
     inkscape:window-maximized="0" />
  <metadata
     id="metadata7">
    <rdf:RDF>
      <cc:Work
         rdf:about="">
        <dc:format>image/svg+xml</dc:format>
        <dc:type
           rdf:resource="http://purl.org/dc/dcmitype/StillImage" />
        <dc:title></dc:title>
      </cc:Work>
    </rdf:RDF>
  </metadata>
  <g
     inkscape:label="Capa 1"
     inkscape:groupmode="layer"
     id="layer1"
     transform="translate(0,-796.36218)">
    <g
       id="g4113"
       transform="matrix(0.46915307,0,0,0.46915307,-48.658682,648.65461)">
      <path
         sodipodi:nodetypes="csssc"
         inkscape:connector-curvature="0"
         id="path2985"
         d="m 251.42857,579.50504 c 0,0 -20.71429,-25.71429 -76.42857,17.85715 -17.79274,13.91483 -23.57143,53.57142 -6.42857,70.71428 17.14286,17.14286 71.42857,1.42857 77.14286,-18.57143 5.71428,-20 5.71428,-70 5.71428,-70 z"
         style="fill:#000000;stroke:#000000;stroke-width:1px;stroke-linecap:butt;stroke-linejoin:miter;stroke-opacity:1" />
      <path
         inkscape:connector-curvature="0"
         id="path2991"
         d="m 298.57594,596.82987 c 0,0 160.61629,-4.74752 188.39204,-14.24257 27.77575,-9.49504 70.04319,-60.13528 80.91196,-82.29038 10.86877,-22.15511 0,-88.62043 0,-88.62043 0,0 -182.35383,104.44549 -205.29901,120.27058 -22.94518,15.82507 -64.00499,64.8828 -64.00499,64.8828 z"
         style="opacity:0.88939999;fill:#dde9af;stroke:#000000;stroke-width:0.9676981px;stroke-linecap:butt;stroke-linejoin:miter;stroke-opacity:1" />
      <path
         sodipodi:nodetypes="csssccczc"
         inkscape:connector-curvature="0"
         id="path2987"
         d="m 250,576.6479 c 0,0 112.85714,-32.85715 181.42857,5.71428 68.57143,38.57143 86.29115,161.90391 64.28572,194.28572 -18.32758,26.96971 -61.60599,62.81068 -131.42858,44.28571 -61.67367,-16.36294 -121.9056,-31.38677 -114.14469,-88.40067 26.95381,60.1638 66.33576,41.71828 84.90719,33.14685 -11.84083,-34.27956 12.9884,-71.81725 12.9884,-71.81725 0,0 -34.79118,20.90326 -60.7712,-4.53082 C 261.28538,663.89765 238.88361,697.21836 250,576.6479 z"
         style="fill:#000000;stroke:#000000;stroke-width:1px;stroke-linecap:butt;stroke-linejoin:miter;stroke-opacity:1" />
      <path
         inkscape:connector-curvature="0"
         id="path3886"
         d="m 352.65709,563.50649 38.91389,-8.51241 32.83359,-1.21606 -13.37665,3.64817 26.7533,6.0803 -6.0803,7.29635 32.83359,2.43212 -10.94453,2.43212 14.59271,20.673 -12.16059,0 40.12995,26.7533 -18.24089,-4.86424 27.96936,35.26571 -9.72847,-4.86423 20.673,42.56206 -17.02483,-14.59271 18.24089,37.69783 -9.72847,-3.64818 6.08029,27.96936 -7.29635,-3.64818 7.29635,32.83359 -6.08029,-2.43212 -14.59271,27.96936 -2.43212,-8.51241 -17.02482,26.75329 -4.86424,-4.86423 -20.673,20.673 0,-7.29635 -27.96936,13.37664 0,-9.72847 -37.69782,12.16059 1.21605,-8.51241 -23.10512,-1.21606 13.37665,-6.08029 0,-17.02483 z"
         style="fill:#000000;stroke:#000000;stroke-width:1px;stroke-linecap:butt;stroke-linejoin:miter;stroke-opacity:1" />
      <path
         sodipodi:nodetypes="csscsssc"
         inkscape:connector-curvature="0"
         id="path2993"
         d="m 171.78572,638.79076 c 0,0 -6.07143,3.92857 6.78571,3.21428 12.85715,-0.71428 3.57143,-33.92858 50.71428,-44.64286 12.84326,-2.91892 17.14286,-3.57143 17.14286,-3.57143 0,0 -18.57143,3.57143 -20.71428,11.42858 -2.14286,7.85714 -7.85715,40.71428 -14.28572,46.42857 C 205,657.36218 190,660.93361 178.57143,648.79076 c -1.95818,-2.08057 -6.78571,-10 -6.78571,-10 z"
         style="fill:#ffdd55;stroke:#000000;stroke-width:1px;stroke-linecap:butt;stroke-linejoin:miter;stroke-opacity:1" />
      <path
         inkscape:connector-curvature="0"
         id="path2995"
         d="m 165.71429,665.21933 c 0,0 -5.71429,9.28571 2.14285,22.85714 7.85715,13.57143 16.42857,22.14286 16.42857,19.28571 0,-2.85714 -14.28571,-25.71428 -10,-30 4.28572,-4.28571 9.28572,-7.14285 9.28572,-7.14285 z"
         style="fill:#000000;stroke:#000000;stroke-width:1px;stroke-linecap:butt;stroke-linejoin:miter;stroke-opacity:1" />
      <path
         transform="translate(0,-3.9285714)"
         sodipodi:open="true"
         sodipodi:end="12.46847"
         sodipodi:start="6.2071318"
         d="m 218.52032,638.86036 c 0.74184,8.55534 -6.54886,16.0193 -16.28425,16.67122 -9.73538,0.65192 -18.22885,-5.75507 -18.97069,-14.3104 -0.74184,-8.55534 6.54887,-16.01929 16.28425,-16.67121 9.58533,-0.64188 17.99751,5.56484 18.93714,13.97227"
         sodipodi:ry="15.535714"
         sodipodi:rx="17.678572"
         sodipodi:cy="640.04077"
         sodipodi:cx="200.89285"
         id="path2999"
         style="opacity:0.85880001;fill:#ff6600;fill-opacity:1;stroke:none"
         sodipodi:type="arc" />
      <path
         sodipodi:nodetypes="cscc"
         inkscape:connector-curvature="0"
         id="path2997"
         d="m 189.28572,626.29076 c 0,0 -6.78572,12.14285 3.92857,19.28571 10.71429,7.14286 13.21428,3.57142 13.21428,3.57142 0,0 1e-5,-23.92857 -5.71428,-23.92857"
         style="fill:#000000;stroke:#000000;stroke-width:1px;stroke-linecap:butt;stroke-linejoin:miter;stroke-opacity:1" />
      <path
         id="path3001"
         d="M 466.15625,628.4375 C 444.34383,628.71786 341.875,670.625 341.875,670.625 l 6.4375,4.53125 137.8125,-15.6875 c 0,0 -5.8226,-24.48299 -16.75,-30.5 -0.68296,-0.37606 -1.76459,-0.54994 -3.21875,-0.53125 z m -116.25,50.53125 -0.875,12.75 150.03125,32.4375 c 0,0 2.71621,-25.01234 -5.5625,-34.34375 -8.27871,-9.3314 -143.59375,-10.84375 -143.59375,-10.84375 z m 1.875,16.96875 L 345.5625,704.5 470.5,789.40625 c 0,0 11.70293,-22.28886 7.40625,-34 -4.29668,-11.71115 -126.125,-59.46875 -126.125,-59.46875 z m -6.34375,12.34375 -5.90625,6 L 398.6875,827.25 c 0,0 19.74599,-11.97343 21.625,-22.75 1.87902,-10.77658 -74.875,-96.21875 -74.875,-96.21875 z"
         style="fill:url(#linearGradient4139);fill-opacity:1;stroke:#000000;stroke-width:1px;stroke-linecap:butt;stroke-linejoin:miter;stroke-opacity:1"
         inkscape:connector-curvature="0" />
      <path
         sodipodi:nodetypes="csssssc"
         inkscape:connector-curvature="0"
         id="path3057"
         d="m 320,569.50504 c 0,0 -52.85714,8.57143 -57.14286,17.14286 -4.28571,8.57142 -17.85714,44.28571 -3.57143,54.28571 14.28572,10 12.85715,37.14286 38.57143,30.71429 25.71429,-6.42857 36.42857,-30.71429 53.57143,-30 17.14286,0.71428 20,8.57143 48.57143,-7.85715 28.57143,-16.42857 55,-43.57143 12.85715,-53.57143"
         style="fill:url(#linearGradient4141);fill-opacity:1;stroke:#000000;stroke-width:1px;stroke-linecap:butt;stroke-linejoin:miter;stroke-opacity:1" />
      <path
         inkscape:connector-curvature="0"
         id="path3059"
         d="m 392.14286,575.21932 -20.71429,3.57143 8.57143,7.14286 -15,5 9.28571,9.28571 -22.85714,0 7.14286,9.28572 -12.85714,2.85714 10.71428,9.28572 -14.28571,5.71428 10,6.42857 -12.14286,7.14286 5,7.85714 27.14286,0.71429 L 365,633.79075 l 13.57143,-3.57142 -16.42857,-9.28572 12.14285,-6.42857 -7.14285,-5.71429 18.57143,-2.85714 -7.85715,-11.42857 18.57143,-2.14286 -10,-7.14286 16.42857,-4.28571 z"
         style="fill:#280b0b;stroke:#000000;stroke-width:1px;stroke-linecap:butt;stroke-linejoin:miter;stroke-opacity:1" />
      <path
         inkscape:connector-curvature="0"
         id="path3059-9"
         d="m 342.21575,566.16577 -19.97146,6.55573 9.52194,5.81571 -14.10988,7.13521 10.54125,7.8314 -22.61251,3.3352 8.42134,8.14409 -12.30263,4.70261 11.95453,7.62296 -13.29902,7.73762 10.831,4.90062 -10.97065,8.83823 6.09296,7.04347 26.95658,-3.2539 -9.35936,-14.50385 12.90505,-5.51347 -17.60766,-6.78917 11.07487,-8.13158 -7.90021,-4.61089 17.95577,-5.5364 -9.44066,-10.15978 18.05999,-4.82977 -10.93522,-5.60727 15.62739,-6.63701 z"
         style="fill:#280b0b;stroke:#000000;stroke-width:1px;stroke-linecap:butt;stroke-linejoin:miter;stroke-opacity:1" />
      <path
         inkscape:connector-curvature="0"
         id="path3059-9-0"
         d="m 289.56675,568.80235 -18.18295,10.54596 10.51917,3.71979 -12.3283,9.90015 11.93347,5.48097 -21.43318,7.94154 9.92413,6.2255 -11.06346,7.14626 13.27304,4.98464 -11.41035,10.32175 11.61058,2.55365 -8.90465,10.91681 7.41841,5.63044 25.70007,-8.76079 -12.15768,-12.25357 11.48508,-8.06422 -18.63134,-2.99926 9.15282,-10.24701 -8.68326,-2.87657 16.42177,-9.13164 -11.33844,-7.98668 16.66994,-8.46186 -11.85875,-3.22346 13.91606,-9.72669 z"
         style="fill:#280b0b;stroke:#000000;stroke-width:1px;stroke-linecap:butt;stroke-linejoin:miter;stroke-opacity:1" />
      <path
         inkscape:connector-curvature="0"
         id="path3884"
         d="m 161.73584,614.58096 8.51241,-29.18541 6.0803,4.86424 12.16059,-31.61754 6.08029,19.45695 30.40147,-37.69783 -3.64817,12.16059 43.77812,-7.29635 -14.59271,13.37664 14.59271,2.43212 -9.72847,12.16059 0,14.59271 -62.01901,14.59271 z"
         style="fill:#000000;stroke:#000000;stroke-width:1px;stroke-linecap:butt;stroke-linejoin:miter;stroke-opacity:1" />
      <path
         inkscape:connector-curvature="0"
         id="path2989"
         d="m 315.8772,612.1921 c 0,0 -32.05885,-171.24133 1.19209,-199.72054 33.25094,-28.47921 94.0249,-81.04035 94.0249,-81.04035 0,0 46.61158,97.57347 5.88154,144.83483 -40.73005,47.26137 -87.27196,136.62956 -87.27196,136.62956 z"
         style="opacity:0.64600004;fill:#cdde87;stroke:#000000;stroke-width:0.83100682px;stroke-linecap:butt;stroke-linejoin:miter;stroke-opacity:1" />
      <path
         transform="matrix(0.81750843,-0.14917205,0.14917205,0.81750843,-5.2608162,146.59867)"
         sodipodi:open="true"
         sodipodi:end="12.46847"
         sodipodi:start="6.2071318"
         d="m 445.31774,405.22819 c 1.47941,16.09995 -13.05997,30.14607 -32.47461,31.37289 -19.41464,1.22683 -36.35261,-10.83022 -37.83202,-26.93017 -1.4794,-16.09994 13.05998,-30.14606 32.47462,-31.37288 19.11539,-1.20792 35.89127,10.47225 37.76511,26.29387"
         sodipodi:ry="29.23604"
         sodipodi:rx="35.255226"
         sodipodi:cy="407.44955"
         sodipodi:cx="410.16443"
         id="path3888"
         style="opacity:0.31399997;fill:#000000;fill-opacity:1;stroke:none"
         sodipodi:type="arc" />
      <path
         sodipodi:open="true"
         sodipodi:end="12.46847"
         sodipodi:start="6.2071318"
         d="m 445.31774,405.22819 c 1.47941,16.09995 -13.05997,30.14607 -32.47461,31.37289 -19.41464,1.22683 -36.35261,-10.83022 -37.83202,-26.93017 -1.4794,-16.09994 13.05998,-30.14606 32.47462,-31.37288 19.11539,-1.20792 35.89127,10.47225 37.76511,26.29387"
         sodipodi:ry="29.23604"
         sodipodi:rx="35.255226"
         sodipodi:cy="407.44955"
         sodipodi:cx="410.16443"
         id="path3888-0"
         style="opacity:0.31399997;fill:#000000;fill-opacity:1;stroke:none"
         sodipodi:type="arc"
         transform="matrix(0.51843429,-0.09459952,0.09459952,0.51843429,95.367565,282.07266)" />
      <path
         sodipodi:open="true"
         sodipodi:end="12.46847"
         sodipodi:start="6.2071318"
         d="m 445.31774,405.22819 c 1.47941,16.09995 -13.05997,30.14607 -32.47461,31.37289 -19.41464,1.22683 -36.35261,-10.83022 -37.83202,-26.93017 -1.4794,-16.09994 13.05998,-30.14606 32.47462,-31.37288 19.11539,-1.20792 35.89127,10.47225 37.76511,26.29387"
         sodipodi:ry="29.23604"
         sodipodi:rx="35.255226"
         sodipodi:cy="407.44955"
         sodipodi:cx="410.16443"
         id="path3888-0-5"
         style="opacity:0.31399997;fill:#000000;fill-opacity:1;stroke:none"
         sodipodi:type="arc"
         transform="matrix(0.51843429,-0.09459952,0.09459952,0.51843429,137.3092,292.98618)" />
      <path
         sodipodi:open="true"
         sodipodi:end="12.46847"
         sodipodi:start="6.2071318"
         d="m 445.31774,405.22819 c 1.47941,16.09995 -13.05997,30.14607 -32.47461,31.37289 -19.41464,1.22683 -36.35261,-10.83022 -37.83202,-26.93017 -1.4794,-16.09994 13.05998,-30.14606 32.47462,-31.37288 19.11539,-1.20792 35.89127,10.47225 37.76511,26.29387"
         sodipodi:ry="29.23604"
         sodipodi:rx="35.255226"
         sodipodi:cy="407.44955"
         sodipodi:cx="410.16443"
         id="path3888-0-5-6"
         style="opacity:0.31399997;fill:#000000;fill-opacity:1;stroke:none"
         sodipodi:type="arc"
         transform="matrix(0.51843429,-0.09459952,0.09459952,0.51843429,104.09021,317.93327)" />
      <path
         sodipodi:open="true"
         sodipodi:end="12.46847"
         sodipodi:start="6.2071318"
         d="m 445.31774,405.22819 c 1.47941,16.09995 -13.05997,30.14607 -32.47461,31.37289 -19.41464,1.22683 -36.35261,-10.83022 -37.83202,-26.93017 -1.4794,-16.09994 13.05998,-30.14606 32.47462,-31.37288 19.11539,-1.20792 35.89127,10.47225 37.76511,26.29387"
         sodipodi:ry="29.23604"
         sodipodi:rx="35.255226"
         sodipodi:cy="407.44955"
         sodipodi:cx="410.16443"
         id="path3888-5"
         style="opacity:0.31399997;fill:#000000;fill-opacity:1;stroke:none"
         sodipodi:type="arc"
         transform="matrix(0.68867801,0.49024211,-0.49024211,0.68867801,446.27237,16.057233)" />
      <path
         sodipodi:open="true"
         sodipodi:end="12.46847"
         sodipodi:start="6.2071318"
         d="m 445.31774,405.22819 c 1.47941,16.09995 -13.05997,30.14607 -32.47461,31.37289 -19.41464,1.22683 -36.35261,-10.83022 -37.83202,-26.93017 -1.4794,-16.09994 13.05998,-30.14606 32.47462,-31.37288 19.11539,-1.20792 35.89127,10.47225 37.76511,26.29387"
         sodipodi:ry="29.23604"
         sodipodi:rx="35.255226"
         sodipodi:cy="407.44955"
         sodipodi:cx="410.16443"
         id="path3888-0-51"
         style="opacity:0.31399997;fill:#000000;fill-opacity:1;stroke:none"
         sodipodi:type="arc"
         transform="matrix(0.43673469,0.31089382,-0.31089382,0.43673469,418.8784,185.52804)" />
      <path
         sodipodi:open="true"
         sodipodi:end="12.46847"
         sodipodi:start="6.2071318"
         d="m 445.31774,405.22819 c 1.47941,16.09995 -13.05997,30.14607 -32.47461,31.37289 -19.41464,1.22683 -36.35261,-10.83022 -37.83202,-26.93017 -1.4794,-16.09994 13.05998,-30.14606 32.47462,-31.37288 19.11539,-1.20792 35.89127,10.47225 37.76511,26.29387"
         sodipodi:ry="29.23604"
         sodipodi:rx="35.255226"
         sodipodi:cy="407.44955"
         sodipodi:cx="410.16443"
         id="path3888-0-5-9"
         style="opacity:0.31399997;fill:#000000;fill-opacity:1;stroke:none"
         sodipodi:type="arc"
         transform="matrix(0.43673469,0.31089382,-0.31089382,0.43673469,440.67319,223.85012)" />
      <path
         sodipodi:open="true"
         sodipodi:end="12.46847"
         sodipodi:start="6.2071318"
         d="m 445.31774,405.22819 c 1.47941,16.09995 -13.05997,30.14607 -32.47461,31.37289 -19.41464,1.22683 -36.35261,-10.83022 -37.83202,-26.93017 -1.4794,-16.09994 13.05998,-30.14606 32.47462,-31.37288 19.11539,-1.20792 35.89127,10.47225 37.76511,26.29387"
         sodipodi:ry="29.23604"
         sodipodi:rx="35.255226"
         sodipodi:cy="407.44955"
         sodipodi:cx="410.16443"
         id="path3888-0-5-6-3"
         style="opacity:0.31399997;fill:#000000;fill-opacity:1;stroke:none"
         sodipodi:type="arc"
         transform="matrix(0.43673469,0.31089382,-0.31089382,0.43673469,398.91934,217.32622)" />
      <path
         inkscape:connector-curvature="0"
         id="path2995-6"
         d="m 182.63888,655.25405 c 0,0 -5.71429,9.28571 2.14285,22.85714 7.85715,13.57143 16.42857,22.14286 16.42857,19.28571 0,-2.85714 -14.28571,-25.71428 -10,-30 4.28572,-4.28571 9.28572,-7.14285 9.28572,-7.14285 z"
         style="fill:#000000;stroke:#000000;stroke-width:1px;stroke-linecap:butt;stroke-linejoin:miter;stroke-opacity:1" />
    </g>
  </g>
</svg>
